<svg width="67" height="67" viewBox="0 0 67 67" fill="none" xmlns="http://www.w3.org/2000/svg">
<path fill-rule="evenodd" clip-rule="evenodd" d="M26.4905 14.3339C25.3572 13.0782 23.8209 12.3713 22.2182 12.3682L18.083 12.373C16.4803 12.3761 14.944 13.083 13.8108 14.3387C12.6775 15.5944 12.0395 17.2967 12.0367 19.0725V26.9122C12.0358 28.4204 12.5429 29.8748 13.4586 30.9906L16.2972 34.46C16.4914 34.5982 16.6511 34.7883 16.7617 35.0129C16.8723 35.2374 16.9301 35.4891 16.9299 35.7449V41.3019C16.9299 41.5024 16.8942 41.7009 16.825 41.8861C16.7558 42.0713 16.6543 42.2396 16.5264 42.3814C16.3984 42.5231 16.2465 42.6356 16.0794 42.7123C15.9122 42.789 15.7331 42.8285 15.5522 42.8285H9.65594C9.06592 42.8283 8.47922 42.9263 7.91547 43.1192C7.81908 43.1701 7.71761 43.2083 7.61315 43.2328C6.48002 43.6973 5.50231 44.5349 4.81134 45.6331C4.12038 46.7312 3.74926 48.0374 3.74783 49.3761V58.9469H36.5545V49.3761C36.5528 47.6401 35.9296 45.9758 34.8218 44.7483C33.714 43.5208 32.212 42.8304 30.6453 42.8285H24.749C24.5681 42.8286 24.3889 42.7893 24.2217 42.7126C24.0544 42.6359 23.9025 42.5235 23.7746 42.3817C23.6466 42.2399 23.5451 42.0716 23.4759 41.8863C23.4067 41.701 23.3712 41.5024 23.3713 41.3019V35.7461C23.3711 35.4903 23.429 35.2386 23.5395 35.0141C23.6501 34.7895 23.8098 34.5994 24.004 34.4612L26.8426 30.9918C27.7584 29.876 28.2654 28.4216 28.2645 26.9134V19.0677C28.2617 17.2919 27.6237 15.5897 26.4905 14.3339Z" fill="white"/>
<path d="M22.2182 12.3682C23.8209 12.3713 25.3572 13.0782 26.4905 14.3339C27.6237 15.5897 28.2617 17.2919 28.2645 19.0677V26.9134C28.2654 28.4216 27.7584 29.876 26.8426 30.9918L24.004 34.4612C23.8098 34.5994 23.6501 34.7895 23.5395 35.0141C23.429 35.2386 23.3711 35.4903 23.3713 35.7461V41.3019C23.3712 41.5024 23.4067 41.701 23.4759 41.8863C23.5451 42.0716 23.6466 42.2399 23.7746 42.3817C23.9025 42.5235 24.0544 42.6359 24.2217 42.7126C24.3889 42.7893 24.5681 42.8286 24.749 42.8285H30.6453C32.212 42.8304 33.714 43.5208 34.8218 44.7483C35.9296 45.9758 36.5528 47.6401 36.5545 49.3761V58.9469H3.74783V49.3761C3.74926 48.0374 4.12038 46.7312 4.81134 45.6331C5.50231 44.5349 6.48002 43.6973 7.61315 43.2328C7.71761 43.2083 7.81908 43.1701 7.91547 43.1192C8.47922 42.9263 9.06592 42.8283 9.65594 42.8285H15.5522C15.7331 42.8285 15.9122 42.789 16.0794 42.7123C16.2465 42.6356 16.3984 42.5231 16.5264 42.3814C16.6543 42.2396 16.7558 42.0713 16.825 41.8861C16.8942 41.7009 16.9299 41.5024 16.9299 41.3019V35.7449C16.9301 35.4891 16.8723 35.2374 16.7617 35.0129C16.6511 34.7883 16.4914 34.5982 16.2972 34.46L13.4586 30.9906C12.5429 29.8748 12.0358 28.4204 12.0367 26.9122V19.0725C12.0395 17.2967 12.6775 15.5944 13.8108 14.3387C14.944 13.083 16.4803 12.3761 18.083 12.373L22.2182 12.3682Z" fill="white"/>
<path fill-rule="evenodd" clip-rule="evenodd" d="M58.1527 33.0435H54.295V30.2919L56.7016 27.3549C57.9497 25.8341 58.6407 23.8521 58.6397 21.7966V14.8339C58.6374 12.4918 57.7967 10.2463 56.3021 8.59018C54.8074 6.93406 52.7809 6.00253 50.6672 6H46.9962C44.8825 6.00253 42.856 6.93406 41.3614 8.59018C39.8667 10.2463 39.026 12.4918 39.0237 14.8339V21.799C39.0224 23.8543 39.7131 25.8363 40.9607 27.3573L43.3684 30.2955V33.0471H39.5161C37.7281 33.049 35.9941 33.7264 34.6004 34.9675C33.2067 36.2086 32.2366 37.9391 31.8502 39.8735C31.4514 39.8111 31.0491 39.7795 30.6464 39.779H26.13V36.4124L28.8864 33.0495C30.2629 31.3719 31.0249 29.1855 31.0232 26.9182V19.0725C31.0206 16.4859 30.0921 14.006 28.4414 12.177C26.7907 10.3479 24.5527 9.31914 22.2182 9.31629L18.083 9.32107C15.7486 9.32392 13.5105 10.3527 11.8598 12.1818C10.2091 14.0108 9.28062 16.4907 9.27805 19.0773V26.923C9.27632 29.1903 10.0383 31.3767 11.4148 33.0543L14.1712 36.4172V39.7766H9.6581C9.27858 39.7773 8.8995 39.8057 8.52334 39.8615L5.87916 40.7373C4.41755 41.5251 3.18514 42.7521 2.32246 44.2785C1.45978 45.8049 1.00155 47.5691 1 49.3701V60.4735C1 60.8783 1.14515 61.2666 1.40352 61.5529C1.66189 61.8392 2.01231 62 2.3777 62H37.9354C38.1164 62.0002 38.2956 61.9608 38.4628 61.8841C38.63 61.8075 38.7819 61.695 38.9099 61.5532C39.0379 61.4115 39.1393 61.2431 39.2085 61.0578C39.2777 60.8725 39.3132 60.674 39.3131 60.4735V53.1171V50.0652V49.3713C39.3115 47.5843 38.8602 45.8332 38.0099 44.3148C37.1596 42.7963 35.9441 41.5707 34.4998 40.7755C34.7053 39.4657 35.3211 38.2781 36.2388 37.4217C37.1565 36.5652 38.3173 36.0948 39.5172 36.093H44.7526C44.9336 36.0932 45.1128 36.0538 45.28 35.9771C45.4472 35.9005 45.5991 35.788 45.7271 35.6463C45.8551 35.5045 45.9565 35.3361 46.0257 35.1508C46.0949 34.9656 46.1305 34.767 46.1303 34.5665V29.6363C46.1305 29.3845 46.0744 29.1366 45.967 28.9146C45.8596 28.6927 45.7043 28.5037 45.5149 28.3646L43.0057 25.3007C42.2183 24.3414 41.7825 23.0909 41.7834 21.7942V14.8339C41.7852 13.3013 42.3354 11.832 43.3134 10.7483C44.2914 9.66464 45.6174 9.05499 47.0005 9.05309H50.6715C52.0547 9.05499 53.3807 9.66464 54.3587 10.7483C55.3367 11.832 55.8869 13.3013 55.8886 14.8339V21.799C55.8876 23.0946 55.4507 24.3431 54.6632 25.3007L52.1561 28.3598C51.9667 28.499 51.8114 28.6879 51.704 28.9099C51.5966 29.1318 51.5405 29.3797 51.5407 29.6315V34.5653C51.5405 34.7658 51.5761 34.9644 51.6453 35.1496C51.7144 35.3349 51.8159 35.5033 51.9439 35.6451C52.0718 35.7868 52.2238 35.8993 52.391 35.9759C52.5582 36.0526 52.7374 36.092 52.9184 36.0918H58.1538C59.5037 36.0937 60.7979 36.6888 61.7524 37.7464C62.707 38.8041 63.244 40.238 63.2457 41.7338V50.0652H39.3131V53.1171H64.6223C64.8033 53.1173 64.9825 53.0779 65.1497 53.0012C65.3169 52.9246 65.4688 52.8121 65.5968 52.6703C65.7248 52.5285 65.8262 52.3602 65.8954 52.1749C65.9646 51.9896 66.0001 51.7911 66 51.5906V41.7326C65.9966 39.4283 65.1685 37.2195 63.6975 35.5906C62.2264 33.9617 60.2324 33.0457 58.1527 33.0435ZM26.4905 14.3339C25.3572 13.0782 23.8209 12.3713 22.2182 12.3682L18.083 12.373C16.4803 12.3761 14.944 13.083 13.8108 14.3387C12.6775 15.5944 12.0395 17.2967 12.0367 19.0725V26.9122C12.0358 28.4204 12.5429 29.8748 13.4586 30.9906L16.2972 34.46C16.4914 34.5982 16.6511 34.7883 16.7617 35.0129C16.8723 35.2374 16.9301 35.4891 16.9299 35.7449V41.3019C16.9299 41.5024 16.8942 41.7009 16.825 41.8861C16.7558 42.0713 16.6543 42.2396 16.5264 42.3814C16.3984 42.5231 16.2465 42.6356 16.0794 42.7123C15.9122 42.789 15.7331 42.8285 15.5522 42.8285H9.65594C9.06592 42.8283 8.47922 42.9263 7.91547 43.1192C7.81908 43.1701 7.71761 43.2083 7.61315 43.2328C6.48002 43.6973 5.50231 44.5349 4.81134 45.6331C4.12038 46.7312 3.74926 48.0374 3.74783 49.3761V58.9469H36.5545V49.3761C36.5528 47.6401 35.9296 45.9758 34.8218 44.7483C33.714 43.5208 32.212 42.8304 30.6453 42.8285H24.749C24.5681 42.8286 24.3889 42.7893 24.2217 42.7126C24.0544 42.6359 23.9025 42.5235 23.7746 42.3817C23.6466 42.2399 23.5451 42.0716 23.4759 41.8863C23.4067 41.701 23.3712 41.5024 23.3713 41.3019V35.7461C23.3711 35.4903 23.429 35.2386 23.5395 35.0141C23.6501 34.7895 23.8098 34.5994 24.004 34.4612L26.8426 30.9918C27.7584 29.876 28.2654 28.4216 28.2645 26.9134V19.0677C28.2617 17.2919 27.6237 15.5897 26.4905 14.3339Z" fill="white"/>
<path d="M39.3131 49.3713V50.0652H63.2457V41.7338C63.244 40.238 62.707 38.8041 61.7524 37.7464C60.7979 36.6888 59.5037 36.0937 58.1538 36.0918H52.9184C52.7374 36.092 52.5582 36.0526 52.391 35.9759C52.2238 35.8993 52.0718 35.7868 51.9439 35.6451C51.8159 35.5033 51.7144 35.3349 51.6453 35.1496C51.5761 34.9644 51.5405 34.7658 51.5407 34.5653V29.6315C51.5405 29.3797 51.5966 29.1318 51.704 28.9099C51.8114 28.6879 51.9667 28.499 52.1561 28.3598L54.6632 25.3007C55.4507 24.3431 55.8876 23.0946 55.8886 21.799V14.8339C55.8869 13.3013 55.3367 11.832 54.3587 10.7483C53.3807 9.66464 52.0547 9.05499 50.6715 9.05309H47.0005C45.6174 9.05499 44.2914 9.66464 43.3134 10.7483C42.3354 11.832 41.7852 13.3013 41.7834 14.8339V21.7942C41.7825 23.0909 42.2183 24.3414 43.0057 25.3007L45.5149 28.3646C45.7043 28.5037 45.8596 28.6927 45.967 28.9146C46.0744 29.1366 46.1305 29.3845 46.1303 29.6363V34.5665C46.1305 34.767 46.0949 34.9656 46.0257 35.1508C45.9565 35.3361 45.8551 35.5045 45.7271 35.6463C45.5991 35.788 45.4472 35.9005 45.28 35.9771C45.1128 36.0538 44.9336 36.0932 44.7526 36.093H39.5172C38.3173 36.0948 37.1565 36.5652 36.2388 37.4217C35.3211 38.2781 34.7053 39.4657 34.4998 40.7755C35.9441 41.5707 37.1596 42.7963 38.0099 44.3148C38.8602 45.8332 39.3115 47.5843 39.3131 49.3713Z" fill="white"/>
<path d="M39.3131 60.4735C39.3132 60.674 39.2777 60.8725 39.2085 61.0578C39.1393 61.2431 39.0379 61.4115 38.9099 61.5532C38.7819 61.695 38.63 61.8075 38.4628 61.8841C38.2956 61.9608 38.1164 62.0002 37.9354 62H2.3777C2.01231 62 1.66189 61.8392 1.40352 61.5529C1.14515 61.2666 1 60.8783 1 60.4735V49.3701C1.00155 47.5691 1.45978 45.8049 2.32246 44.2785C3.18514 42.7521 4.41755 41.5251 5.87916 40.7373L8.52334 39.8615C8.8995 39.8057 9.27858 39.7773 9.6581 39.7766H14.1712V36.4172L11.4148 33.0543C10.0383 31.3767 9.27632 29.1903 9.27805 26.923V19.0773C9.28062 16.4907 10.2091 14.0108 11.8598 12.1818C13.5105 10.3527 15.7486 9.32392 18.083 9.32107L22.2182 9.31629C24.5527 9.31914 26.7907 10.3479 28.4414 12.177C30.0921 14.006 31.0206 16.4859 31.0232 19.0725V26.9182C31.0249 29.1855 30.2629 31.3719 28.8864 33.0495L26.13 36.4124V39.779H30.6464C31.0491 39.7795 31.4514 39.8111 31.8502 39.8735C32.2366 37.9391 33.2067 36.2086 34.6004 34.9675C35.9941 33.7264 37.7281 33.049 39.5161 33.0471H43.3684V30.2955L40.9607 27.3573C39.7131 25.8363 39.0224 23.8543 39.0237 21.799V14.8339C39.026 12.4918 39.8667 10.2463 41.3614 8.59018C42.856 6.93406 44.8825 6.00253 46.9962 6H50.6672C52.7809 6.00253 54.8074 6.93406 56.3021 8.59018C57.7967 10.2463 58.6374 12.4918 58.6397 14.8339V21.7966C58.6407 23.8521 57.9497 25.8341 56.7016 27.3549L54.295 30.2919V33.0435H58.1527C60.2324 33.0457 62.2264 33.9617 63.6975 35.5906C65.1685 37.2195 65.9966 39.4283 66 41.7326V51.5906C66.0001 51.7911 65.9646 51.9896 65.8954 52.1749C65.8262 52.3602 65.7248 52.5285 65.5968 52.6703C65.4688 52.8121 65.3169 52.9246 65.1497 53.0012C64.9825 53.0779 64.8033 53.1173 64.6223 53.1171H39.3131M39.3131 60.4735V49.3713M39.3131 60.4735V53.1171M39.3131 49.3713C39.3115 47.5843 38.8602 45.8332 38.0099 44.3148C37.1596 42.7963 35.9441 41.5707 34.4998 40.7755C34.7053 39.4657 35.3211 38.2781 36.2388 37.4217C37.1565 36.5652 38.3173 36.0948 39.5172 36.093H44.7526C44.9336 36.0932 45.1128 36.0538 45.28 35.9771C45.4472 35.9005 45.5991 35.788 45.7271 35.6463C45.8551 35.5045 45.9565 35.3361 46.0257 35.1508C46.0949 34.9656 46.1305 34.767 46.1303 34.5665V29.6363C46.1305 29.3845 46.0744 29.1366 45.967 28.9146C45.8596 28.6927 45.7043 28.5037 45.5149 28.3646L43.0057 25.3007C42.2183 24.3414 41.7825 23.0909 41.7834 21.7942V14.8339C41.7852 13.3013 42.3354 11.832 43.3134 10.7483C44.2914 9.66464 45.6174 9.05499 47.0005 9.05309H50.6715C52.0547 9.05499 53.3807 9.66464 54.3587 10.7483C55.3367 11.832 55.8869 13.3013 55.8886 14.8339V21.799C55.8876 23.0946 55.4507 24.3431 54.6632 25.3007L52.1561 28.3598C51.9667 28.499 51.8114 28.6879 51.704 28.9099C51.5966 29.1318 51.5405 29.3797 51.5407 29.6315V34.5653C51.5405 34.7658 51.5761 34.9644 51.6453 35.1496C51.7144 35.3349 51.8159 35.5033 51.9439 35.6451C52.0718 35.7868 52.2238 35.8993 52.391 35.9759C52.5582 36.0526 52.7374 36.092 52.9184 36.0918H58.1538C59.5037 36.0937 60.7979 36.6888 61.7524 37.7464C62.707 38.8041 63.244 40.238 63.2457 41.7338V50.0652H39.3131M39.3131 49.3713V50.0652M39.3131 50.0652V53.1171M22.2182 12.3682C23.8209 12.3713 25.3572 13.0782 26.4905 14.3339C27.6237 15.5897 28.2617 17.2919 28.2645 19.0677V26.9134C28.2654 28.4216 27.7584 29.876 26.8426 30.9918L24.004 34.4612C23.8098 34.5994 23.6501 34.7895 23.5395 35.0141C23.429 35.2386 23.3711 35.4903 23.3713 35.7461V41.3019C23.3712 41.5024 23.4067 41.701 23.4759 41.8863C23.5451 42.0716 23.6466 42.2399 23.7746 42.3817C23.9025 42.5235 24.0544 42.6359 24.2217 42.7126C24.3889 42.7893 24.5681 42.8286 24.749 42.8285H30.6453C32.212 42.8304 33.714 43.5208 34.8218 44.7483C35.9296 45.9758 36.5528 47.6401 36.5545 49.3761V58.9469H3.74783V49.3761C3.74926 48.0374 4.12038 46.7312 4.81134 45.6331C5.50231 44.5349 6.48002 43.6973 7.61315 43.2328C7.71761 43.2083 7.81908 43.1701 7.91547 43.1192C8.47922 42.9263 9.06592 42.8283 9.65594 42.8285H15.5522C15.7331 42.8285 15.9122 42.789 16.0794 42.7123C16.2465 42.6356 16.3984 42.5231 16.5264 42.3814C16.6543 42.2396 16.7558 42.0713 16.825 41.8861C16.8942 41.7009 16.9299 41.5024 16.9299 41.3019V35.7449C16.9301 35.4891 16.8723 35.2374 16.7617 35.0129C16.6511 34.7883 16.4914 34.5982 16.2972 34.46L13.4586 30.9906C12.5429 29.8748 12.0358 28.4204 12.0367 26.9122V19.0725C12.0395 17.2967 12.6775 15.5944 13.8108 14.3387C14.944 13.083 16.4803 12.3761 18.083 12.373L22.2182 12.3682Z" stroke="white"/>
</svg>
