<svg width="67" height="67" viewBox="0 0 67 67" fill="none" xmlns="http://www.w3.org/2000/svg">
<path fill-rule="evenodd" clip-rule="evenodd" d="M7.5 5H59.5C63.075 5 66 8.15 66 12V54C66 57.85 63.075 61 59.5 61H7.5C3.925 61 1 57.85 1 54L1.0325 12C1.0325 8.15 3.925 5 7.5 5ZM7.5 54H43.25H59.5L59 13H43.25H7.5V36.5V54Z" fill="white"/>
<path d="M26.15 43C25.93 43 25.74 42.92 25.58 42.76C25.42 42.6 25.34 42.41 25.34 42.19V22.81C25.34 22.59 25.42 22.4 25.58 22.24C25.74 22.08 25.93 22 26.15 22H35C36.28 22 37.35 22.2 38.21 22.6C39.07 22.98 39.76 23.47 40.28 24.07C40.8 24.65 41.17 25.29 41.39 25.99C41.63 26.67 41.75 27.31 41.75 27.91C41.75 28.51 41.67 29.05 41.51 29.53C41.35 29.99 41.15 30.39 40.91 30.73C40.69 31.05 40.46 31.32 40.22 31.54C40 31.76 39.82 31.91 39.68 31.99C40.3 32.41 40.87 33.01 41.39 33.79C41.91 34.55 42.17 35.52 42.17 36.7C42.17 37.46 42.03 38.22 41.75 38.98C41.47 39.72 41.06 40.39 40.52 40.99C39.98 41.59 39.3 42.08 38.48 42.46C37.68 42.82 36.75 43 35.69 43H26.15ZM37.7 28.06C37.7 27.3 37.46 26.73 36.98 26.35C36.5 25.95 35.74 25.75 34.7 25.75H29.39V30.37H34.7C35.74 30.37 36.5 30.18 36.98 29.8C37.46 29.4 37.7 28.82 37.7 28.06ZM29.39 39.25H34.94C36.04 39.25 36.84 39.02 37.34 38.56C37.86 38.08 38.12 37.46 38.12 36.7C38.12 35.94 37.85 35.32 37.31 34.84C36.79 34.36 36 34.12 34.94 34.12H29.39V39.25Z" fill="white"/>
</svg>
