<svg width="67" height="67" viewBox="0 0 67 67" fill="none" xmlns="http://www.w3.org/2000/svg">
<path fill-rule="evenodd" clip-rule="evenodd" d="M58.1527 34.0435H54.295V31.2919L56.7016 28.3549C57.9497 26.8341 58.6407 24.8521 58.6397 22.7966V15.8339C58.6374 13.4918 57.7967 11.2463 56.3021 9.59018C54.8074 7.93406 52.7809 7.00253 50.6672 7H46.9962C44.8825 7.00253 42.856 7.93406 41.3614 9.59018C39.8667 11.2463 39.026 13.4918 39.0237 15.8339V22.799C39.0224 24.8543 39.7131 26.8363 40.9607 28.3573L43.3684 31.2955V34.0471H39.5161C37.7281 34.049 35.9941 34.7264 34.6004 35.9675C33.2067 37.2086 32.2366 38.9391 31.8502 40.8735C31.4514 40.8111 31.0491 40.7795 30.6464 40.779H26.13V37.4124L28.8864 34.0495C30.2629 32.3719 31.0249 30.1855 31.0232 27.9182V20.0725C31.0206 17.4859 30.0921 15.006 28.4414 13.177C26.7907 11.3479 24.5527 10.3191 22.2182 10.3163L18.083 10.3211C15.7486 10.3239 13.5105 11.3527 11.8598 13.1818C10.2091 15.0108 9.28062 17.4907 9.27805 20.0773V27.923C9.27632 30.1903 10.0383 32.3767 11.4148 34.0543L14.1712 37.4172V40.7766H9.6581C9.27858 40.7773 8.8995 40.8057 8.52334 40.8615L5.87916 41.7373C4.41755 42.5251 3.18514 43.7521 2.32246 45.2785C1.45978 46.8049 1.00155 48.5691 1 50.3701V61.4735C1 61.8783 1.14515 62.2666 1.40352 62.5529C1.66189 62.8392 2.01231 63 2.3777 63H37.9354C38.1164 63.0002 38.2956 62.9608 38.4628 62.8841C38.63 62.8075 38.7819 62.695 38.9099 62.5532C39.0379 62.4115 39.1393 62.2431 39.2085 62.0578C39.2777 61.8725 39.3132 61.674 39.3131 61.4735V50.3713C39.3115 48.5843 38.8602 46.8332 38.0099 45.3148C37.1596 43.7963 35.9441 42.5707 34.4998 41.7755C34.7053 40.4657 35.3211 39.2781 36.2388 38.4217C37.1565 37.5652 38.3173 37.0948 39.5172 37.093H44.7526C44.9336 37.0932 45.1128 37.0538 45.28 36.9771C45.4472 36.9005 45.5991 36.788 45.7271 36.6463C45.8551 36.5045 45.9565 36.3361 46.0257 36.1508C46.0949 35.9656 46.1305 35.767 46.1303 35.5665V30.6363C46.1305 30.3845 46.0744 30.1366 45.967 29.9146C45.8596 29.6927 45.7043 29.5037 45.5149 29.3646L43.0057 26.3007C42.2183 25.3414 41.7825 24.0909 41.7834 22.7942V15.8339C41.7852 14.3013 42.3354 12.832 43.3134 11.7483C44.2914 10.6646 45.6174 10.055 47.0005 10.0531H50.6715C52.0547 10.055 53.3807 10.6646 54.3587 11.7483C55.3367 12.832 55.8869 14.3013 55.8886 15.8339V22.799C55.8876 24.0946 55.4507 25.3431 54.6632 26.3007L52.1561 29.3598C51.9667 29.499 51.8114 29.6879 51.704 29.9099C51.5966 30.1318 51.5405 30.3797 51.5407 30.6315V35.5653C51.5405 35.7658 51.5761 35.9644 51.6453 36.1496C51.7144 36.3349 51.8159 36.5033 51.9439 36.6451C52.0718 36.7868 52.2238 36.8993 52.391 36.9759C52.5582 37.0526 52.7374 37.092 52.9184 37.0918H58.1538C59.5037 37.0937 60.7979 37.6888 61.7524 38.7464C62.707 39.8041 63.244 41.238 63.2457 42.7338V51.0652H43.4289C43.2448 51.0595 43.0615 51.0947 42.89 51.1688C42.7184 51.243 42.5619 51.3544 42.4299 51.4967C42.2979 51.639 42.1929 51.8091 42.1212 51.9971C42.0496 52.1851 42.0126 52.3871 42.0126 52.5911C42.0126 52.7952 42.0496 52.9972 42.1212 53.1852C42.1929 53.3732 42.2979 53.5433 42.4299 53.6856C42.5619 53.8278 42.7184 53.9393 42.89 54.0134C43.0615 54.0876 43.2448 54.1228 43.4289 54.1171H64.6223C64.8033 54.1173 64.9825 54.0779 65.1497 54.0012C65.3169 53.9246 65.4688 53.8121 65.5968 53.6703C65.7248 53.5285 65.8262 53.3602 65.8954 53.1749C65.9646 52.9896 66.0001 52.7911 66 52.5906V42.7326C65.9966 40.4283 65.1685 38.2195 63.6975 36.5906C62.2264 34.9617 60.2324 34.0457 58.1527 34.0435ZM26.4905 15.3339C25.3572 14.0782 23.8209 13.3713 22.2182 13.3682L18.083 13.373C16.4803 13.3761 14.944 14.083 13.8108 15.3387C12.6775 16.5944 12.0395 18.2967 12.0367 20.0725V27.9122C12.0358 29.4204 12.5429 30.8748 13.4586 31.9906L16.2972 35.46C16.4914 35.5982 16.6511 35.7883 16.7617 36.0129C16.8723 36.2374 16.9301 36.4891 16.9299 36.7449V42.3019C16.9299 42.5024 16.8942 42.7009 16.825 42.8861C16.7558 43.0713 16.6543 43.2396 16.5264 43.3814C16.3984 43.5231 16.2465 43.6356 16.0794 43.7123C15.9122 43.789 15.7331 43.8285 15.5522 43.8285H9.65594C9.06592 43.8283 8.47922 43.9263 7.91547 44.1192C7.81908 44.1701 7.71761 44.2083 7.61315 44.2328C6.48002 44.6973 5.50231 45.5349 4.81134 46.6331C4.12038 47.7312 3.74926 49.0374 3.74783 50.3761V59.9469H36.5545V50.3761C36.5528 48.6401 35.9296 46.9758 34.8218 45.7483C33.714 44.5208 32.212 43.8304 30.6453 43.8285H24.749C24.5681 43.8286 24.3889 43.7893 24.2217 43.7126C24.0544 43.6359 23.9025 43.5235 23.7746 43.3817C23.6466 43.2399 23.5451 43.0716 23.4759 42.8863C23.4067 42.701 23.3712 42.5024 23.3713 42.3019V36.7461C23.3711 36.4903 23.429 36.2386 23.5395 36.0141C23.6501 35.7895 23.8098 35.5994 24.004 35.4612L26.8426 31.9918C27.7584 30.876 28.2654 29.4216 28.2645 27.9134V20.0677C28.2617 18.2919 27.6237 16.5897 26.4905 15.3339Z" fill="white" stroke="white" stroke-width="2"/>
</svg>
