<svg width="58" height="58" viewBox="0 0 58 58" fill="none" xmlns="http://www.w3.org/2000/svg">
<path fill-rule="evenodd" clip-rule="evenodd" d="M48.2177 5C53.1471 5 57.1429 8.98533 57.1429 13.9005C57.1429 17.4619 55.0404 20.5253 52.0106 21.9481C52.9007 24.339 53.3901 26.9088 53.3901 29.5868C53.3901 42.3072 42.466 52.619 28.9908 52.619C15.5156 52.619 4.59152 42.3072 4.59152 29.5868C4.59152 27.0213 5.04229 24.5563 5.86248 22.2516C2.444 21.0041 0 17.7411 0 13.9005C0 8.98533 3.99571 5 8.92514 5C12.3122 5 15.2584 6.88152 16.7708 9.65428C20.365 7.6859 24.5365 6.55381 28.9908 6.55381C33.1851 6.55381 37.1322 7.55409 40.5792 9.31381C42.1424 6.7319 44.9736 5 48.2177 5ZM17.9481 17.9727C20.0628 17.62 22.0825 19.1589 22.4596 21.4094C22.6511 22.5501 22.3825 23.6536 21.7974 24.5121L21.7973 24.5005C21.7967 24.3769 21.796 24.2539 21.7745 24.1289C21.5394 22.7268 20.1321 21.7928 18.6311 22.0429C17.1302 22.2936 16.1035 23.633 16.3386 25.0357C16.3591 25.1557 16.3965 25.2677 16.4338 25.3796L16.4422 25.4048C15.6091 24.7835 14.9948 23.8275 14.8033 22.6869C14.4261 20.4356 15.8342 18.3253 17.9481 17.9727ZM38.809 17.9342C36.6714 17.771 34.7969 19.4838 34.6225 21.7592C34.5339 22.912 34.9004 23.9878 35.5598 24.79C35.549 24.6631 35.5384 24.537 35.5476 24.4067C35.657 22.989 36.975 21.9331 38.4925 22.0492C40.0106 22.1653 41.1522 23.4086 41.0436 24.8263C41.0339 24.9527 41.0048 25.0723 40.9757 25.1917L40.9729 25.2031C41.748 24.51 42.2738 23.5033 42.3624 22.3499C42.5368 20.0744 40.9457 18.0973 38.809 17.9342ZM17.861 33.6242C17.861 28.9727 22.6561 25.2017 28.5714 25.2017C34.4868 25.2017 39.2819 28.9727 39.2819 33.6242C39.2819 38.2764 34.4868 42.0472 28.5714 42.0472C22.6561 42.0472 17.861 38.2764 17.861 33.6242ZM28.5715 27.7818C31.3777 27.7818 33.6524 29.3563 33.6524 31.2976C33.6524 33.2397 31.3777 34.8142 28.5715 34.8142C25.7653 34.8142 23.4906 33.2397 23.4906 31.2976C23.4906 29.3563 25.7653 27.7818 28.5715 27.7818Z" fill="white"/>
</svg>
