<svg width="226" height="28" viewBox="0 0 226 28" fill="none" xmlns="http://www.w3.org/2000/svg">
<rect width="226" height="28" fill="none"/>
<path d="M65.7261 27.9999V0.631348H67.5857L86.5332 24.4561V0.631348H88.6034V27.9999H86.7437L67.7963 4.21032V27.9999H65.7261ZM103.453 0.631348H114.154C116.236 0.631348 118.073 0.993931 119.663 1.71907C121.254 2.42083 122.576 3.39159 123.628 4.63137C124.704 5.84767 125.511 7.28627 126.049 8.94719C126.611 10.6081 126.891 12.3976 126.891 14.3156C126.891 16.2337 126.611 18.035 126.049 19.7192C125.511 21.3801 124.704 22.8302 123.628 24.0701C122.576 25.2864 121.254 26.2455 119.663 26.9473C118.073 27.6491 116.236 27.9999 114.154 27.9999H103.453V0.631348ZM105.523 2.66645V25.9648H114.049C115.78 25.9648 117.312 25.6723 118.646 25.0876C119.979 24.4794 121.102 23.6608 122.014 22.6315C122.926 21.5788 123.616 20.3508 124.084 18.9472C124.576 17.5204 124.821 15.9766 124.821 14.3156C124.821 12.6547 124.576 11.1226 124.084 9.71912C123.616 8.2923 122.926 7.06422 122.014 6.03489C121.102 4.98225 119.979 4.16352 118.646 3.57873C117.312 2.97053 115.78 2.66645 114.049 2.66645H105.523ZM139.98 0.631348H158.787V2.66645H142.05V13.5788H156.296V15.5437H142.05V25.9648H158.787V27.9999H139.98V0.631348ZM183.985 0.631348C185.459 0.631348 186.769 0.865258 187.915 1.33311C189.085 1.80095 190.067 2.44422 190.863 3.26294C191.658 4.05826 192.266 4.99396 192.687 6.06998C193.108 7.12261 193.319 8.24543 193.319 9.43842C193.319 10.3976 193.178 11.3214 192.898 12.2104C192.617 13.0993 192.208 13.9179 191.67 14.6665C191.155 15.4151 190.512 16.07 189.74 16.6314C188.968 17.1695 188.079 17.5906 187.073 17.8946L194.266 27.9999H191.74L184.828 18.2806C184.687 18.3039 184.547 18.3157 184.406 18.3157C184.266 18.3157 184.126 18.3157 183.985 18.3157H173.985V27.9999H171.915V0.631348H183.985ZM173.985 2.59627V16.3507H183.915C185.108 16.3507 186.161 16.1635 187.073 15.7893C187.985 15.4151 188.757 14.9121 189.389 14.2806C190.021 13.649 190.488 12.9239 190.792 12.1051C191.12 11.263 191.284 10.3858 191.284 9.4735C191.284 8.56122 191.12 7.6958 190.792 6.877C190.488 6.03489 190.021 5.29804 189.389 4.66646C188.757 4.03488 187.985 3.53194 187.073 3.15768C186.161 2.78342 185.108 2.59627 183.915 2.59627H173.985ZM206.797 0.631348H225.604V2.66645H208.868V13.5788H223.113V15.5437H208.868V25.9648H225.604V27.9999H206.797V0.631348Z" fill="#F29629"/>
<path d="M0 0.631348H10.5615C12.1521 0.631348 13.5673 0.888666 14.8071 1.40328C16.0703 1.89451 17.1229 2.57289 17.965 3.43838C18.8305 4.30388 19.4855 5.30975 19.9299 6.45594C20.3745 7.60207 20.5966 8.80683 20.5966 10.07C20.5966 11.3099 20.3745 12.5028 19.9299 13.649C19.4855 14.7718 18.8305 15.766 17.965 16.6314C17.1229 17.4969 16.0703 18.1871 14.8071 18.7016C13.5673 19.2162 12.1521 19.4736 10.5615 19.4736H2.07019V27.9999H0V0.631348ZM2.07019 2.59627V17.5086H10.4913C11.7545 17.5086 12.8773 17.3099 13.8597 16.9121C14.8656 16.4911 15.7077 15.9415 16.3861 15.263C17.0878 14.5613 17.6141 13.766 17.965 12.877C18.3159 11.9647 18.4913 11.0292 18.4913 10.07C18.4913 9.06423 18.3159 8.11686 17.965 7.22788C17.6141 6.31559 17.0878 5.52035 16.3861 4.8419C15.7077 4.14014 14.8656 3.59044 13.8597 3.19277C12.8773 2.7951 11.7545 2.59627 10.4913 2.59627H2.07019Z" fill="#F29629"/>
<path d="M27.6412 26.747L26.7362 26.3159L26.0535 27.7495H27.6412V26.747ZM40.1726 0.431005L41.0776 0H39.2676L40.1726 0.431005ZM52.704 26.747V27.7495H54.2917L53.609 26.3159L52.704 26.747ZM28.5462 27.178L41.0776 0.862011L39.2676 0L26.7362 26.3159L28.5462 27.178ZM39.2676 0.862011L51.799 27.178L53.609 26.3159L41.0776 0L39.2676 0.862011ZM52.704 25.7444H47.6914V27.7495H52.704V25.7444ZM27.6412 27.7495H41.4257V25.7444H27.6412V27.7495Z" fill="#F29629"/>
</svg>
