<svg width="58" height="58" viewBox="0 0 58 58" fill="none" xmlns="http://www.w3.org/2000/svg">
<g clip-path="url(#clip0)">
<path fill-rule="evenodd" clip-rule="evenodd" d="M21.777 48.759C31.5667 48.759 39.5029 41.0371 39.5029 31.5116C39.5029 21.9861 31.5667 14.2642 21.777 14.2642C11.9873 14.2642 4.05115 21.9861 4.05115 31.5116C4.05115 41.0371 11.9873 48.759 21.777 48.759ZM21.7766 38.4711C25.7268 38.4711 28.9291 35.3552 28.9291 31.5116C28.9291 27.668 25.7268 24.5521 21.7766 24.5521C17.8264 24.5521 14.6241 27.668 14.6241 31.5116C14.6241 35.3552 17.8264 38.4711 21.7766 38.4711Z" fill="white"/>
<line x1="8.75366" y1="23.9534" x2="8.75366" y2="51.5" stroke="white" stroke-width="13" stroke-linecap="round" stroke-linejoin="round"/>
<ellipse cx="24.2927" cy="6.18913" rx="4.6647" ry="6.05172" fill="white"/>
<ellipse rx="4.53997" ry="6.21807" transform="matrix(-0.0986697 0.99512 -0.995623 -0.0934623 49.5024 31.5739)" fill="white"/>
<ellipse rx="6.08843" ry="8.02315" transform="matrix(0.85184 0.523803 -0.544691 0.838637 37.3821 8.00558)" fill="white"/>
<ellipse rx="6.00712" ry="8.13138" transform="matrix(0.483368 0.875417 -0.886216 0.463272 47.8903 18.7518)" fill="white"/>
</g>
<defs>
<clipPath id="clip0">
<rect width="58" height="58" fill="white"/>
</clipPath>
</defs>
</svg>
